<svg width="22" height="23" viewBox="0 0 22 23" fill="none" xmlns="http://www.w3.org/2000/svg">
<path d="M11.052 14.329L12.466 15.743L16.71 11.5L12.467 7.257L11.053 8.672L12.88 10.5L5.34296 10.5L5.34296 12.5L12.88 12.5L11.052 14.329Z" fill="white"/>
<path fill-rule="evenodd" clip-rule="evenodd" d="M18.778 19.278C23.074 14.982 23.074 8.018 18.778 3.722C14.482 -0.574 7.518 -0.574001 3.222 3.722C-1.074 8.018 -1.074 14.982 3.222 19.278C7.518 23.574 14.482 23.574 18.778 19.278ZM17.364 17.864C19.0518 16.1762 20.0001 13.887 20.0001 11.5C20.0001 9.11304 19.0518 6.82384 17.364 5.136C15.6762 3.44816 13.387 2.49994 11 2.49994C8.61304 2.49994 6.32384 3.44816 4.636 5.136C2.94816 6.82384 1.99994 9.11304 1.99994 11.5C1.99994 13.887 2.94816 16.1762 4.636 17.864C6.32384 19.5518 8.61304 20.5001 11 20.5001C13.387 20.5001 15.6762 19.5518 17.364 17.864Z" fill="white"/>
</svg>
